<?xml version="1.0" encoding="utf-8"?>
<!-- Generator: Adobe Illustrator 22.0.1, SVG Export Plug-In . SVG Version: 6.00 Build 0)  -->
<svg version="1.1" id="Слой_1" xmlns="http://www.w3.org/2000/svg" xmlns:xlink="http://www.w3.org/1999/xlink" x="0px" y="0px"
	 viewBox="0 0 487.8 140.7" style="enable-background:new 0 0 487.8 140.7;" xml:space="preserve">
<style type="text/css">
	.st0{fill:#FFFFFF;}
	.st1{fill:url(#SVGID_1_);}
	.st2{fill:#1FA170;}
	.st3{fill:url(#SVGID_2_);}
	.st4{fill:url(#SVGID_3_);}
	.st5{fill:url(#SVGID_4_);}
</style>
<title>Asset 3</title>
<g id="Layer_2">
	<g id="Layer_2-2">
		<path class="st0" d="M183.6,60.6c-1.5-2.4-3.7-4.3-6.2-5.5c-2.9-1.3-6.1-2-9.3-1.9h-18.2v45.6h11V83.3h7c5.6,0,9.9-1.3,13.1-4
			c3.2-2.6,4.9-6.6,4.8-10.7C185.8,65.8,185.1,63,183.6,60.6z M173,73.2c-1.4,1.2-3.1,1.7-4.9,1.6h-7.2V61.7h7.3
			c1.8,0,3.5,0.7,4.7,2c1.2,1.4,1.8,3.2,1.7,5.1C174.8,70.4,174.2,72,173,73.2z"/>
		<path class="st0" d="M221.5,81.1c0-5.3-1.4-9.4-4.1-12.4s-6.5-4.4-11.3-4.4c-3.1-0.1-6.1,0.7-8.8,2.2c-2.5,1.4-4.4,3.6-5.6,6.2
			c-1.3,2.9-2,6-1.9,9.2v0.9c-0.2,4.5,1.6,8.9,4.8,12.1c3.2,3.1,7.4,4.7,12.6,4.7c2.7,0,5.4-0.5,7.8-1.6c2.2-0.9,4.2-2.4,5.6-4.3
			l-5.2-5.2c-1.9,2-4.6,3.1-7.4,3c-1.8,0.1-3.6-0.5-5-1.6c-1.3-1.2-2.2-2.7-2.5-4.5h21L221.5,81.1z M211.1,78.6h-10.7
			c0.6-4.1,2.4-6.1,5.5-6.1c1.4-0.1,2.8,0.4,3.9,1.4c0.9,1.1,1.4,2.5,1.3,3.9L211.1,78.6z"/>
		<path class="st0" d="M254.6,64.9L247,87.2l-7.6-22.3h-13v33.9H237V81l6.5,17.8h7l6.9-18.8v18.8H268V64.9H254.6z"/>
		<path class="st0" d="M272.9,64.9V73h10.5v25.8H294V73h10.7v-8.1H272.9z"/>
		<path class="st0" d="M338.2,84.2c-1.8-1.5-3.9-2.4-6.2-2.7c1.8-0.5,3.5-1.5,4.8-2.9c1-1.2,1.6-2.7,1.6-4.2c0.1-2.8-1.3-5.5-3.7-7
			c-2.5-1.6-6.1-2.4-10.7-2.4h-14.6v33.9h17c4.5,0,8-0.8,10.4-2.5c2.4-1.6,3.8-4.3,3.6-7.2C340.4,87.2,339.6,85.4,338.2,84.2z
			 M320,73h4c1-0.1,2,0.2,2.9,0.7c0.7,0.6,1,1.4,0.9,2.3c0,0.7-0.2,1.4-0.8,1.9c-0.8,0.5-1.7,0.7-2.7,0.6H320V73z M329,90
			c-0.8,0.5-1.8,0.8-2.8,0.7H320V85h6.6c2.2,0.1,3.3,1.1,3.3,3C329.9,88.8,329.6,89.5,329,90z"/>
		<path class="st0" d="M371.7,69c-2.9-3.1-6.9-4.7-12-4.7c-3-0.1-6.1,0.6-8.7,2.1c-2.5,1.4-4.4,3.5-5.7,6.1c-1.4,2.8-2,5.9-2,9v1.8
			c0.2,4.9,1.8,8.9,4.7,11.8c2.9,2.9,6.8,4.3,11.6,4.3c5,0,9-1.6,11.9-4.7s4.4-7.3,4.4-12.6v-0.4C376.1,76.4,374.7,72.1,371.7,69z
			 M365.6,82.6c-0.1,5.8-2,8.7-5.8,8.7c-1.7,0.1-3.4-0.7-4.4-2.2c-0.9-1.5-1.4-3.8-1.4-6.9v-1.9c0.3-5.2,2.2-7.9,5.7-7.9
			c3.9,0,5.8,3,5.8,9.1L365.6,82.6z"/>
		<path class="st0" d="M408.8,68.9c-2.3-3.1-6-4.8-9.8-4.6c-3.1-0.1-6.1,1.3-8,3.7l-0.3-3.1h-9.9v47h10.6V96
			c1.9,2.2,4.7,3.5,7.7,3.4c3.8,0.1,7.4-1.7,9.6-4.7c2.4-3.2,3.6-7.4,3.6-12.6v-0.5C412.3,76.2,411.1,72,408.8,68.9z M401.7,82.6
			c-0.1,5.8-1.8,8.7-5.2,8.7c-2.5,0-4.2-0.9-5.1-2.8V75.1c0.8-1.8,2.5-2.7,5-2.7c3.5,0,5.3,3,5.3,9L401.7,82.6z"/>
		<path class="st0" d="M447.6,81.1c0-5.3-1.4-9.4-4.1-12.4s-6.5-4.4-11.3-4.4c-3.1-0.1-6.1,0.7-8.8,2.2c-2.5,1.4-4.4,3.6-5.6,6.2
			c-1.3,2.9-2,6-1.9,9.2v0.9c-0.2,4.5,1.6,8.9,4.8,12.1c3.2,3.1,7.4,4.7,12.6,4.7c2.7,0,5.3-0.5,7.8-1.6c2.2-0.9,4.2-2.4,5.6-4.3
			l-4.8-5.7c-1.9,2.4-4.8,3.7-7.8,3.5c-1.8,0.1-3.6-0.5-5-1.6c-1.3-1.2-2.2-2.7-2.5-4.5h21L447.6,81.1z M437.3,78.6h-10.7
			c0.6-4.1,2.4-6.1,5.5-6.1c1.4-0.1,2.8,0.4,3.9,1.4c1,1.1,1.4,2.5,1.3,3.9V78.6z"/>
		<path class="st0" d="M482.2,90.7V64.9h-10.6v25.8h-9.3V64.9h-10.6v33.9h25.5l10,10l0.6-18.1L482.2,90.7z"/>
		
			<linearGradient id="SVGID_1_" gradientUnits="userSpaceOnUse" x1="27.02" y1="45.844" x2="79.08" y2="45.844" gradientTransform="matrix(1 0 0 -1 0 139.999)">
			<stop  offset="0" style="stop-color:#1FA170"/>
			<stop  offset="0.5" style="stop-color:#1C605F"/>
			<stop  offset="1" style="stop-color:#1FA170"/>
		</linearGradient>
		<polygon class="st1" points="58.9,47.6 53.2,53.3 47.5,47.6 0,95.1 15.4,110.5 53.2,72.6 84.7,104.1 84.7,140.7 106.4,140.7 
			106.4,95.1 		"/>
		<path class="st2" d="M74.8,0H10.2v21.7h32.2V119H21.7V95.1H0v45.6h64.1v-119h10.7c7.4,0,13.4,6,13.4,13.4c0,3.3-1.3,6.5-3.5,9
			L100,59.5c6.3-6.5,9.9-15.3,9.9-24.4l0,0C109.9,15.7,94.1,0,74.8,0z"/>
		
			<linearGradient id="SVGID_2_" gradientUnits="userSpaceOnUse" x1="58.0802" y1="-5.691" x2="53.0102" y2="47.039" gradientTransform="matrix(1 0 0 -1 0 139.999)">
			<stop  offset="0" style="stop-color:#72C172"/>
			<stop  offset="1" style="stop-color:#1FA170;stop-opacity:0"/>
		</linearGradient>
		<polygon class="st3" points="58.9,47.6 53.2,53.3 47.5,47.6 0,95.1 15.4,110.5 53.2,72.6 84.7,104.1 84.7,140.7 106.4,140.7 
			106.4,95.1 		"/>
		
			<linearGradient id="SVGID_3_" gradientUnits="userSpaceOnUse" x1="53.215" y1="125.389" x2="53.215" y2="96.299" gradientTransform="matrix(1 0 0 -1 0 139.999)">
			<stop  offset="0" style="stop-color:#1C605F"/>
			<stop  offset="1" style="stop-color:#1FA170"/>
		</linearGradient>
		<rect x="42.3" y="21.7" class="st4" width="21.7" height="119"/>
		
			<linearGradient id="SVGID_4_" gradientUnits="userSpaceOnUse" x1="60.551" y1="-5.4519" x2="55.481" y2="47.2781" gradientTransform="matrix(1 0 0 -1 0 139.999)">
			<stop  offset="0" style="stop-color:#72C172"/>
			<stop  offset="1" style="stop-color:#1FA170;stop-opacity:0"/>
		</linearGradient>
		<path class="st5" d="M74.8,0H10.2v21.7h32.2V119H21.7V95.1H0v45.6h64.1v-119h10.7c7.4,0,13.4,6,13.4,13.4c0,3.3-1.3,6.5-3.5,9
			L100,59.5c6.3-6.5,9.9-15.3,9.9-24.4l0,0C109.9,15.7,94.1,0,74.8,0z"/>
	</g>
</g>
</svg>
